<svg width="16" height="16" viewBox="0 0 16 16" fill="none" xmlns="http://www.w3.org/2000/svg">
<path d="M15.5119 12.6166L13.8597 10.9644C13.3716 10.4763 12.6206 10.3261 11.9823 10.6265C11.6819 10.7767 11.3439 10.9644 11.0435 11.2648C9.12848 13.1799 2.89521 6.94662 4.81025 5.03158C5.11065 4.73119 5.2984 4.39324 5.4486 4.09284C5.749 3.45449 5.5988 2.7035 5.11065 2.21535L3.42091 0.488061C2.59482 -0.300484 1.24302 -0.112735 0.717327 0.901109C0.15408 1.9525 -0.258968 3.45449 0.19163 5.29443C1.16792 9.19961 6.80039 14.8321 10.7056 15.8084C12.5455 16.259 14.0475 15.8459 15.0989 15.2827C16.1127 14.757 16.3005 13.4052 15.5119 12.6166Z" fill="#4E4E4E"/>
</svg>
