<svg width="22" height="22" viewBox="0 0 22 22" fill="none" xmlns="http://www.w3.org/2000/svg">
<path d="M20.8637 19.5L20.8637 19.5L20.8619 19.4981L15.9829 14.6191C17.3055 12.9478 17.9527 10.8387 17.7928 8.71007C17.6295 6.53625 16.6368 4.50837 15.0203 3.04587C13.4037 1.58338 11.2869 0.798169 9.10762 0.852657C6.92835 0.907146 4.8534 1.79716 3.31195 3.33862C1.77049 4.88007 0.880473 6.95503 0.825985 9.13429C0.771497 11.3136 1.55671 13.4304 3.0192 15.047C4.48169 16.6635 6.50958 17.6561 8.6834 17.8195C10.812 17.9794 12.9211 17.3322 14.5925 16.0096L19.4714 20.8886L19.4714 20.8886L19.4733 20.8904C19.6588 21.0695 19.9071 21.1686 20.165 21.1664C20.4228 21.1642 20.6694 21.0607 20.8517 20.8784C21.0341 20.6961 21.1375 20.4495 21.1397 20.1916C21.142 19.9338 21.0429 19.6854 20.8637 19.5ZM9.33317 15.8767C8.04435 15.8766 6.78448 15.4944 5.71287 14.7784C4.64121 14.0624 3.80595 13.0446 3.31272 11.8538C2.81949 10.6631 2.69044 9.35278 2.94188 8.08867C3.19333 6.82456 3.81398 5.6634 4.72535 4.75203C5.63673 3.84066 6.79789 3.22 8.062 2.96856C9.3261 2.71711 10.6364 2.84616 11.8272 3.33939C13.0179 3.83262 14.0357 4.66788 14.7517 5.73954C15.4678 6.81115 15.85 8.07102 15.85 9.35984C15.8481 11.0876 15.1608 12.7441 13.9391 13.9658C12.7174 15.1875 11.0609 15.8747 9.33317 15.8767Z" fill="white" stroke="white" stroke-width="0.3"/>
</svg>
